<svg xmlns="http://www.w3.org/2000/svg" viewBox="0 0 384 512" role="img" aria-label="Apple">
  <path
    fill="#f5f5f7"
    d="M318.7 268.7c-.2-36.7 16.4-64.4 50-84.8-18.8-26.9-47.2-41.7-84.7-44.6-35.5-2.8-74.3 20.7-88.5 20.7-15 0-49.4-19.7-76.4-19.7C63.3 141.2 4 184.8 4 273.5q0 39.3 14.4 81.2c12.8 36.7 59 126.9 107.2 125.2 25-3.3 42.4-20.1 75.1-20.1s47.4 20.4 77.3 19.8c32.2-.8 59.8-50.5 82.5-87.4 25.7-37.6 36.3-74.1 37-76.1-.8-.3-70.9-27.2-71.7-109.5zM256.8 71.7c42.7-5.1 79.4 23.6 95.2 57.1-85.7 41.5-72.2 149.7-2.4 185.6 4.8-44.3-11-92.8-42.7-128.2-22.1-24.8-51.2-39.9-81.6-40.5-3.5 0-7 0-10.5.7z"
  />
</svg>
