<svg xmlns="http://www.w3.org/2000/svg" viewBox="0 0 24 24" role="img" aria-label="Apple">
  <path
    fill="#f5f5f7"
    d="M16.365 1.43c0 1.14-.42 2.08-1.13 2.82-.76.78-1.99 1.37-3.12 1.29-.05-1.09.45-2.14 1.15-2.88.71-.74 1.96-1.33 3.1-1.23zm2.8 5.02c-1.93 0-2.77 1.12-4.12 1.12-1.39 0-2.27-1.1-3.87-1.1-1.98 0-3.77 1.17-4.98 3.01C3.87 9.84 3 12.9 3.94 16.07c.7 2.01 1.66 3.58 2.87 3.6 1.05.02 1.37-.68 2.87-.68 1.46 0 1.74.68 2.86.67 1.21-.02 2.01-1.24 2.71-2.46.43-.74.6-1.12.94-1.96-2.47-1.01-2.5-4.72-.03-5.72 1.01-.42 1.72-1.46 1.72-2.62 0-.03 0-.06-.01-.09-1.56.06-2.86.72-3.62 1.35z"
  />
</svg>
