<?xml version="1.0" encoding="UTF-8"?>
<svg xmlns="http://www.w3.org/2000/svg" viewBox="0 0 48 48" width="256" height="256">
  <path fill="#FFC107" d="M43.6 20.1H24v7.8h11.3c-1.1 5.5-5.8 9.5-11.3 9.5-6.6 0-12-5.4-12-12s5.4-12 12-12c3 0 5.7 1.1 7.8 2.9l5.9-5.9C34.3 6.2 29.4 4 24 4 12.9 4 4 12.9 4 24s8.9 20 20 20c11 0 19.7-8 19.7-20 0-1.3-.1-2.6-.4-3.9z"/>
  <path fill="#FF3D00" d="M6.3 14.7l6.4 4.7C14.5 15.1 18.9 12 24 12c3 0 5.7 1.1 7.8 2.9l5.9-5.9C34.3 6.2 29.4 4 24 4 16.3 4 9.6 8.3 6.3 14.7z"/>
  <path fill="#4CAF50" d="M24 44c5.3 0 10.1-2 13.7-5.3l-6.3-5.2C29.3 35.3 26.8 36.3 24 36.3c-5.5 0-10.1-3.9-11.3-9.2l-6.4 4.9C9.5 39.6 16.2 44 24 44z"/>
  <path fill="#1976D2" d="M43.6 20.1H24v7.8h11.3c-.5 2.7-2 5.1-3.9 6.6l.1.1 6.3 5.2C39.2 37.5 43.7 31.8 43.7 24c0-1.3-.1-2.6-.4-3.9z"/>
</svg>
